<svg
		xmlns="http://www.w3.org/2000/svg"
		viewBox="0 0 200 200"
		width="200"
		height="200"
>
	<circle cx="100" cy="120" r="60" fill="#f5c6a5" />

	<circle cx="100" cy="70" r="50" fill="#f5c6a5" />

	<polygon points="55,40 70,10 85,40" fill="#f5c6a5" />
	<polygon points="115,40 130,10 145,40" fill="#f5c6a5" />

	<circle cx="80" cy="65" r="8" fill="#000" />
	<circle cx="120" cy="65" r="8" fill="#000" />

	<polygon points="95,80 105,80 100,88" fill="#d66" />

	<path
			d="M95 92 Q100 100 105 92"
			stroke="#000"
			stroke-width="2"
			fill="none"
	/>

	<line x1="60" y1="80" x2="30" y2="78" stroke="#000" stroke-width="2" />
	<line x1="60" y1="90" x2="30" y2="90" stroke="#000" stroke-width="2" />
	<line x1="60" y1="100" x2="30" y2="102" stroke="#000" stroke-width="2" />

	<line x1="140" y1="80" x2="170" y2="78" stroke="#000" stroke-width="2" />
	<line x1="140" y1="90" x2="170" y2="90" stroke="#000" stroke-width="2" />
	<line x1="140" y1="100" x2="170" y2="102" stroke="#000" stroke-width="2" />
</svg>
